<svg xmlns="http://www.w3.org/2000/svg" xmlns:xlink="http://www.w3.org/1999/xlink" width="185" zoomAndPan="magnify" viewBox="0 0 138.75 221.249992" height="295" preserveAspectRatio="xMidYMid meet" version="1.0"><defs><clipPath id="434c0a7c77"><path d="M 0.109375 0 L 138.390625 0 L 138.390625 220.503906 L 0.109375 220.503906 Z M 0.109375 0 " clip-rule="nonzero"/></clipPath><clipPath id="45ca573709"><path d="M 84 68 L 138.390625 68 L 138.390625 173 L 84 173 Z M 84 68 " clip-rule="nonzero"/></clipPath><clipPath id="f20223621b"><path d="M 95.683594 68.984375 L 155.3125 165.085938 L 143.742188 172.265625 L 84.113281 76.164062 Z M 95.683594 68.984375 " clip-rule="nonzero"/></clipPath><clipPath id="c77946916f"><path d="M 61 0 L 138.390625 0 L 138.390625 130 L 61 130 Z M 61 0 " clip-rule="nonzero"/></clipPath><clipPath id="ed24fb5719"><path d="M 76 0 L 138.390625 0 L 138.390625 112 L 76 112 Z M 76 0 " clip-rule="nonzero"/></clipPath><clipPath id="3b11704a14"><path d="M 0.109375 0 L 89 0 L 89 65 L 0.109375 65 Z M 0.109375 0 " clip-rule="nonzero"/></clipPath><clipPath id="1248490415"><path d="M 51 0 L 138.390625 0 L 138.390625 145.382812 L 51 145.382812 Z M 51 0 " clip-rule="nonzero"/></clipPath><clipPath id="9b5b3ab779"><path d="M 33.9375 133.417969 L 59 133.417969 L 59 158 L 33.9375 158 Z M 33.9375 133.417969 " clip-rule="nonzero"/></clipPath><clipPath id="c3fef615f2"><path d="M 80 133.417969 L 104.945312 133.417969 L 104.945312 158 L 80 158 Z M 80 133.417969 " clip-rule="nonzero"/></clipPath><clipPath id="7d82588a3b"><path d="M 80 179 L 104.945312 179 L 104.945312 204.425781 L 80 204.425781 Z M 80 179 " clip-rule="nonzero"/></clipPath><clipPath id="3cd23c5a8f"><path d="M 33.9375 179 L 59 179 L 59 204.425781 L 33.9375 204.425781 Z M 33.9375 179 " clip-rule="nonzero"/></clipPath><clipPath id="b9918c921b"><path d="M 10 211 L 13 211 L 13 215.839844 L 10 215.839844 Z M 10 211 " clip-rule="nonzero"/></clipPath><clipPath id="87d08cb198"><path d="M 8.53125 209.859375 L 14.507812 209.859375 L 14.507812 215.839844 L 8.53125 215.839844 Z M 8.53125 209.859375 " clip-rule="nonzero"/></clipPath></defs><g clip-path="url(#434c0a7c77)"><path fill="#ffffff" d="M 0.109375 0 L 138.390625 0 L 138.390625 220.503906 L 0.109375 220.503906 Z M 0.109375 0 " fill-opacity="1" fill-rule="nonzero"/><path fill="#ffffff" d="M 0.109375 0 L 138.390625 0 L 138.390625 220.503906 L 0.109375 220.503906 Z M 0.109375 0 " fill-opacity="1" fill-rule="nonzero"/></g><g clip-path="url(#45ca573709)"><g clip-path="url(#f20223621b)"><path fill="#2b3c56" d="M 95.683594 68.984375 L 155.308594 165.082031 L 143.738281 172.261719 L 84.113281 76.164062 Z M 95.683594 68.984375 " fill-opacity="1" fill-rule="nonzero"/></g></g><g clip-path="url(#c77946916f)"><path fill="#2b3c56" d="M 61 -16.816406 L 144.125 -16.816406 L 144.125 129.683594 L 97.542969 47.980469 L 71.042969 0.890625 Z M 61 -16.816406 " fill-opacity="1" fill-rule="nonzero"/></g><g clip-path="url(#ed24fb5719)"><path fill="#00c49a" d="M 76.261719 -7.964844 L 129.671875 -7.964844 L 144.125 17.796875 L 144.125 111.574219 L 102.765625 38.722656 Z M 76.261719 -7.964844 " fill-opacity="1" fill-rule="nonzero"/></g><path fill="#227c7c" d="M 129.671875 -7.964844 L 76.261719 -7.964844 L 34.898438 64.082031 L 88.308594 64.082031 Z M 129.671875 -7.964844 " fill-opacity="1" fill-rule="nonzero"/><g clip-path="url(#3b11704a14)"><path fill="#00c49a" d="M -10.878906 -16.816406 L 42.53125 -16.816406 L 61.804688 17.394531 L 88.308594 64.082031 L 34.898438 64.082031 Z M -10.878906 -16.816406 " fill-opacity="1" fill-rule="nonzero"/></g><g clip-path="url(#1248490415)"><path fill="#2b3c56" d="M 51.765625 -16.816406 L 55.378906 -16.816406 L 68.230469 5.722656 L 94.734375 52.8125 L 144.125 139.34375 L 144.125 145.382812 L 93.128906 55.628906 L 66.625 8.941406 Z M 120.433594 -7.964844 L 124.851562 -0.316406 L 144.125 33.492188 L 144.125 27.453125 L 126.859375 -3.132812 L 124.046875 -7.964844 L 119.230469 -16.816406 L 115.617188 -16.816406 Z M 120.433594 -7.964844 " fill-opacity="1" fill-rule="nonzero"/></g><path stroke-linecap="butt" transform="matrix(0.747466, 0, 0, 0.747466, 11.665907, 122.269156)" fill="none" stroke-linejoin="miter" d="M -0.00246726 0.998667 L 54.384401 0.998667 " stroke="#006a4e" stroke-width="2" stroke-opacity="1" stroke-miterlimit="4"/><g clip-path="url(#9b5b3ab779)"><path fill="#006a4e" d="M 37.058594 157.652344 L 33.9375 157.652344 L 33.9375 133.417969 L 58.167969 133.417969 L 58.167969 136.539062 L 37.058594 136.539062 Z M 37.058594 157.652344 " fill-opacity="1" fill-rule="nonzero"/></g><g clip-path="url(#c3fef615f2)"><path fill="#006a4e" d="M 104.699219 157.652344 L 101.578125 157.652344 L 101.578125 136.539062 L 80.46875 136.539062 L 80.46875 133.417969 L 104.699219 133.417969 Z M 104.699219 157.652344 " fill-opacity="1" fill-rule="nonzero"/></g><g clip-path="url(#7d82588a3b)"><path fill="#006a4e" d="M 104.699219 204.183594 L 80.46875 204.183594 L 80.46875 201.058594 L 101.578125 201.058594 L 101.578125 179.949219 L 104.699219 179.949219 Z M 104.699219 204.183594 " fill-opacity="1" fill-rule="nonzero"/></g><g clip-path="url(#3cd23c5a8f)"><path fill="#006a4e" d="M 58.167969 204.183594 L 33.9375 204.183594 L 33.9375 179.949219 L 37.058594 179.949219 L 37.058594 201.058594 L 58.167969 201.058594 Z M 58.167969 204.183594 " fill-opacity="1" fill-rule="nonzero"/></g><path stroke-linecap="butt" transform="matrix(0.747466, 0, 0, 0.747466, 11.665907, 96.591284)" fill="none" stroke-linejoin="miter" d="M -0.00246726 1.001463 L 54.384401 1.001463 " stroke="#006a4e" stroke-width="2" stroke-opacity="1" stroke-miterlimit="4"/><g clip-path="url(#b9918c921b)"><path fill="#156064" d="M 11.132812 212.28125 C 10.546875 212.617188 11.441406 214.292969 12.082031 213.925781 C 12.195312 214.121094 12.5625 214.757812 12.675781 214.953125 C 12.40625 215.109375 12.175781 215.207031 11.863281 215.027344 C 10.992188 214.53125 10.03125 212.871094 10.058594 211.882812 C 10.070312 211.539062 10.273438 211.402344 10.539062 211.25 C 10.652344 211.449219 11.019531 212.082031 11.132812 212.28125 Z M 11.132812 212.28125 " fill-opacity="1" fill-rule="nonzero"/></g><path fill="#156064" d="M 11.378906 212.25 C 11.3125 212.289062 11.234375 212.265625 11.195312 212.203125 L 10.636719 211.234375 C 10.597656 211.167969 10.621094 211.085938 10.683594 211.050781 L 10.980469 210.882812 C 11.042969 210.84375 11.125 210.867188 11.160156 210.929688 L 11.71875 211.902344 C 11.757812 211.964844 11.734375 212.046875 11.671875 212.082031 Z M 11.378906 212.25 " fill-opacity="1" fill-rule="nonzero"/><path fill="#156064" d="M 12.910156 214.902344 C 12.84375 214.941406 12.761719 214.917969 12.726562 214.855469 L 12.167969 213.882812 C 12.128906 213.820312 12.152344 213.738281 12.214844 213.703125 L 12.507812 213.53125 C 12.574219 213.496094 12.65625 213.519531 12.691406 213.582031 L 13.25 214.550781 C 13.289062 214.617188 13.265625 214.695312 13.203125 214.734375 Z M 12.910156 214.902344 " fill-opacity="1" fill-rule="nonzero"/><g clip-path="url(#87d08cb198)"><path fill="#156064" d="M 11.664062 209.859375 C 12.53125 209.859375 13.3125 210.210938 13.882812 210.777344 C 14.449219 211.34375 14.796875 212.128906 14.796875 212.992188 L 14.800781 212.992188 L 14.800781 212.996094 L 14.796875 212.996094 C 14.796875 213.859375 14.449219 214.644531 13.882812 215.210938 C 13.3125 215.777344 12.53125 216.128906 11.664062 216.128906 C 10.796875 216.128906 10.015625 215.777344 9.449219 215.210938 C 8.882812 214.644531 8.53125 213.859375 8.53125 212.996094 L 8.53125 212.992188 C 8.53125 212.128906 8.882812 211.34375 9.449219 210.777344 C 10.015625 210.210938 10.796875 209.859375 11.664062 209.859375 Z M 11.664062 210.234375 C 10.902344 210.234375 10.214844 210.542969 9.714844 211.042969 C 9.214844 211.542969 8.902344 212.234375 8.902344 212.992188 L 8.90625 212.992188 L 8.90625 212.996094 L 8.902344 212.996094 C 8.902344 213.753906 9.214844 214.445312 9.714844 214.945312 C 10.214844 215.445312 10.902344 215.753906 11.664062 215.753906 C 12.425781 215.753906 13.117188 215.445312 13.617188 214.945312 C 14.117188 214.445312 14.425781 213.753906 14.425781 212.996094 L 14.425781 212.992188 C 14.425781 212.234375 14.117188 211.542969 13.617188 211.042969 C 13.117188 210.542969 12.425781 210.234375 11.664062 210.234375 Z M 11.664062 210.234375 " fill-opacity="1" fill-rule="nonzero"/></g></svg>